<?xml version="1.0" encoding="UTF-8"?>
<svg width="512" height="512" viewBox="0 0 24 24" xmlns="http://www.w3.org/2000/svg">
  <path fill="#4338ca" d="M19.425 9.442c0-.65-.59-1.121-1.238-1.121c-.539 0-1.009.34-1.129.849h-4.755V6.199c0-.54-.48-.979-1.02-.979h-.01c-1.09 0-1.97.89-1.97 1.98v1.97H4.55c-.099-.509-.579-.849-1.119-.849c-.649 0-1.238.471-1.238 1.121c0 .54.44.98.98.98h.259v4.24h-.26c-.54 0-.979.45-.979 1s.439 1 .979 1h.259v.47c0 .81.47 1.5 1.16 1.83l1.13.54c.23.11.47.16.71.16h11.36c.27 0 .49-.22.49-.49v-.98c0-.27-.22-.49-.49-.49H8.393l-.13-.06c-.07-.04-.12-.11-.12-.19V16.2c0-.66.53-1.2 1.19-1.2h4.36c.13.76.67 1.45 1.48 1.73l.8.28c.23.08.49-.09.49-.34v-.47c0-.33-.24-.61-.56-.67l-.84-.15c-.31-.05-.53-.32-.53-.63V9.442h3.71c.12.509.59.849 1.129.849c.649 0 1.238-.469 1.238-1.119c0-.12-.069-.24-.089-.37h.26c.54 0 .979-.44.979-.98c0-.13-.029-.26-.069-.38zm-11.113 5.01v-3.39c0-.17.139-.31.309-.31h.01c.17 0 .31.14.31.31v3.38c0 .17-.14.31-.31.31h-.01c-.17 0-.309-.14-.309-.31zm3.59-.01c0 .17-.14.31-.31.31h-.01c-.17 0-.31-.14-.31-.31v-3.38c0-.17.14-.31.31-.31h.01c.17 0 .31.14.31.31z"/>
</svg>